<?xml version="1.0" encoding="utf-8"?>
<!-- Generator: Adobe Illustrator 22.0.1, SVG Export Plug-In . SVG Version: 6.00 Build 0)  -->
<svg version="1.1" id="Layer_1" xmlns="http://www.w3.org/2000/svg" xmlns:xlink="http://www.w3.org/1999/xlink" x="0px" y="0px"
	 viewBox="0 0 240 278" style="enable-background:new 0 0 240 278;" xml:space="preserve">
<style type="text/css">
	.st0{fill:#E5332A;stroke:#BD1622;stroke-width:3;stroke-miterlimit:10;}
	.st1{fill:#FFFFFF;}
	.st2{fill:#E5332A;}
</style>
<polygon class="st0" points="240.7,208.5 240.7,69.1 120,-0.6 -0.7,69.1 -0.7,208.5 120,278.2 "/>
<g>
	<path class="st1" d="M22.5,110.7c2.7-0.5,6.5-0.8,10.1-0.8c5.6,0,9.2,1,11.7,3.3c2,1.8,3.2,4.6,3.2,7.7c0,5.3-3.4,8.9-7.6,10.3v0.1
		c3.1,1.1,5,4.1,5.9,8.2c1.3,5.7,2.3,9.5,3.1,11.1h-5.4c-0.7-1.1-1.6-4.6-2.7-9.7c-1.2-5.5-3.4-7.7-8.1-7.9h-4.9v17.5h-5.3V110.7z
		 M27.7,129.1h5.3c5.6,0,9.1-3.1,9.1-7.7c0-5.3-3.8-7.5-9.3-7.6c-2.6,0-4.3,0.2-5.2,0.5V129.1z"/>
	<path class="st1" d="M57.6,137c0.1,7.1,4.6,10.1,10,10.1c3.8,0,6.1-0.7,8-1.5l0.9,3.8c-1.8,0.8-5,1.9-9.7,1.9
		c-8.9,0-14.3-5.9-14.3-14.6c0-8.8,5.2-15.7,13.7-15.7c9.4,0,11.9,8.3,11.9,13.6c0,1.1-0.1,1.9-0.2,2.5H57.6z M73,133.2
		c0.1-3.3-1.4-8.5-7.3-8.5c-5.3,0-7.7,4.9-8.1,8.5H73z"/>
	<path class="st1" d="M84.7,131c0-3.7-0.1-6.7-0.2-9.4h4.7l0.2,4.9h0.1c2.1-3.5,5.6-5.6,10.3-5.6c7,0,12.3,5.9,12.3,14.7
		c0,10.4-6.4,15.6-13.1,15.6c-4,0-7.3-1.7-9-4.6h-0.1v15.8h-5.2V131z M89.9,138.8c0,0.8,0.1,1.5,0.2,2.2c1,3.7,4.1,6.2,7.9,6.2
		c5.6,0,8.8-4.6,8.8-11.2c0-5.8-3.1-10.7-8.6-10.7c-3.6,0-7,2.5-8,6.5c-0.2,0.7-0.4,1.4-0.4,2.2V138.8z"/>
	<path class="st1" d="M138.7,150.6l-0.3-4.7h-0.1c-1.3,2.2-4.3,5.4-9.7,5.4c-5.6,0-10-3.4-10-12.7v-16.9h5.3v16
		c0,5.6,1.8,9.3,6.4,9.3c3.8,0,6.3-2.6,7.1-4.8c0.3-0.8,0.5-1.9,0.5-2.8v-17.8h5.2v21.1c0,3.1,0.1,5.6,0.2,7.9H138.7z"/>
	<path class="st1" d="M158.2,113.2v8.4h7.6v4h-7.6v15.7c0,3.6,1,5.6,4,5.6c1.4,0,2.3-0.2,3.1-0.4l0.2,4c-1,0.5-2.6,0.8-4.7,0.8
		c-2.4,0-4.4-0.8-5.7-2.2c-1.4-1.7-2-4.2-2-7.6v-15.8h-4.5v-4h4.5v-7L158.2,113.2z"/>
	<path class="st1" d="M177.7,113.4c0,1.8-1.3,3.2-3.4,3.2c-1.9,0-3.2-1.4-3.2-3.2c-0.1-1.8,1.3-3.3,3.2-3.3S177.6,111.5,177.7,113.4
		z M171.7,150.6v-29h5.2v29H171.7z"/>
	<path class="st1" d="M185.8,108h5.2v42.6h-5.2V108z"/>
	<path class="st1" d="M199.2,145.2c1.6,1,4.3,2.1,7,2.1c3.8,0,5.6-1.9,5.6-4.3c0-2.5-1.5-3.8-5.4-5.3c-5.2-1.9-7.7-4.8-7.7-8.3
		c0-4.6,3.8-8.5,10-8.5c2.9,0,5.5,0.8,7.1,1.7l-1.3,3.8c-1.1-0.7-3.2-1.7-6-1.7c-3.1,0-4.8,1.9-4.8,4c0,2.4,1.7,3.5,5.5,5
		c5,1.9,7.6,4.3,7.6,8.7c0,5.1-4,8.8-10.9,8.8c-3.2,0-6.1-0.8-8.2-2L199.2,145.2z"/>
</g>
<g>
	<circle class="st1" cx="188.8" cy="101.7" r="7.5"/>
	<ellipse class="st2" cx="188" cy="93.8" rx="4.3" ry="10"/>
</g>
<g>
	<circle class="st1" cx="188.8" cy="157.4" r="7.5"/>
	<ellipse class="st2" cx="189.6" cy="165.2" rx="4.3" ry="10"/>
</g>
<rect x="187.9" y="109.1" class="st2" width="1.7" height="40.7"/>
</svg>
